# xmcd
#
# Track frame offsets:
#	150
#	19418
#	34208
#	52034
#	66863
#	82970
#	97694
#	109342
#	128126
#	142801
#	158155
#	192110
#	206620
#	223544
#	233847
#	251978
#	270975
#	287319
#	298933
#	313650
#
# Disc length: 4406 seconds
#
# Revision: 0
# Processed by: cddbd v1.5.2PL0 Copyright (c) Steve Scherf et al.
# Submitted via: dBpowerAMP V4.0
#
DISCID=23113414
DTITLE=Various Artist - Goue Country Klanke Vol 1
DYEAR=2000
DGENRE=Country
TTITLE0=Back home again (Bobby Angel)
TTITLE1=Crystal chandeliers (Joanna Field)
TTITLE2=Two Pina Colades (Bles Bridges)
TTITLE3=No Hollywood movie (Patricia Lewis)
TTITLE4=Rainbows and roses (Jurie Els)
TTITLE5=For your sake (Sally Vaughn)
TTITLE6=Save the last dance for me (Gene Rockwell)
TTITLE7=All you ever do is bring me down (Denis East)
TTITLE8=Achy breaky heart (Robbie Klay)
TTITLE9=Ek glo in wat môre wag (Patricia Lewis and Jurie Els)
TTITLE10=Irish Medley (Lance James)
TTITLE11=The wedding (Ave Maria) (Jody Wayne)
TTITLE12=Livin' on love (Bobby Angel)
TTITLE13=Have I told you lately that I love you (Patricia Lewis)
TTITLE14=I need more of you (Bles Bridges)
TTITLE15=Take it like a man (Joanna Field)
TTITLE16=Little yellow aeroplane (Jurie Els)
TTITLE17=I'm thinking tonight of my blue eyes (Myles Shannon)
TTITLE18=Give a child a chance (Patricia Lewis, Jurie Els, Nadine, Robbie Klay, and Simeon Hamman)
TTITLE19=Rhinestone cowboy (Dennis East)
EXTD=
EXTT0=
EXTT1=
EXTT2=
EXTT3=
EXTT4=
EXTT5=
EXTT6=
EXTT7=
EXTT8=
EXTT9=
EXTT10=
EXTT11=
EXTT12=
EXTT13=
EXTT14=
EXTT15=
EXTT16=
EXTT17=
EXTT18=
EXTT19=
PLAYORDER=
